<svg xmlns="http://www.w3.org/2000/svg" xmlns:xlink="http://www.w3.org/1999/xlink" version="1.1" x="0px" y="0px" viewBox="0 0 90 112.5" enable-background="new 0 0 90 90" xml:space="preserve"><g><path d="M25.686,69.854c3.957,1.054,10.85,0.9,17.294-0.863c6.445-1.764,15.816-8.297,21.936-14.826s10.528-14.122,12.725-19.419   c2.197-5.298,4.584-12.339,5.768-17.299c1.184-4.96,0.29-7.87,0.29-7.87c-0.31,4.992-3.108,6.265-6.185,8.278   c-3.076,2.013-3.316,1.754-9.108,2.791s-12.895,0.275-23.961,1.868c-11.066,1.593-20.161,7.387-23.903,10.501   s-6.601,9.388-7.479,12.858s-1.19,7.048-0.359,9.743c0.548,1.777,1.637,2.943,1.637,2.943l4.321-8.478   c0,0,5.958-8.911,14.007-13.493c8.049-4.581,13.398-3.758,17.926-4.467c4.53-0.708,11.47-2.329,14.758-3.333   c3.29-1.004,9.036-4.17,9.036-4.17s-5.265,3.684-8.702,5.308c-3.438,1.624-7.854,2.712-11.515,3.578   c-3.659,0.866-8.669,1.627-11.987,2.81c-4.476,1.596-7.749,3.216-10.2,5.252c-2.452,2.037-6.717,5.757-9.113,9.672   c-2.396,3.914-4.935,8.323-6.304,11.524c-1.37,3.202-3.255,6.51-5.067,8.318c-1.812,1.81-5.521,4.05-5.521,4.05   s0.489,1.988,1.383,3.21c0.885,1.211,2.268,2.084,2.268,2.084s3.425-3.022,6.004-5.938c1.998-2.258,3.173-3.792,3.944-5.201   c0.648-1.187,1.152-2.429,1.152-2.429S22.961,69.127,25.686,69.854z"/></g><text x="0" y="105" fill="#000000" font-size="5px" font-weight="bold" font-family="'Helvetica Neue', Helvetica, Arial-Unicode, Arial, Sans-serif">Created by Alex Arseneau</text><text x="0" y="110" fill="#000000" font-size="5px" font-weight="bold" font-family="'Helvetica Neue', Helvetica, Arial-Unicode, Arial, Sans-serif">from the Noun Project</text></svg>